<svg xmlns="http://www.w3.org/2000/svg" version="1.1" xmlns:xlink="http://www.w3.org/1999/xlink" xmlns:svgjs="http://svgjs.dev/svgjs" width="1000" height="851" viewBox="0 0 1000 851"><g transform="matrix(1,0,0,1,0.6994423312727918,0.3445344129554542)"><svg viewBox="0 0 290 247" data-background-color="#ffffff" preserveAspectRatio="xMidYMid meet" height="851" width="1000" xmlns="http://www.w3.org/2000/svg" xmlns:xlink="http://www.w3.org/1999/xlink"><g id="tight-bounds" transform="matrix(1,0,0,1,-0.20283827606911586,-0.09999999999999432)"><svg viewBox="0 0 290.40567655213823 247.2" height="247.2" width="290.40567655213823"><g><svg viewBox="0 0 395.5199999999999 336.67573292922975" height="247.2" width="290.40567655213823"><g transform="matrix(1,0,0,1,0,250.30908280516027)"><svg viewBox="0 0 395.5199999999999 86.36665012406947" height="86.36665012406947" width="395.5199999999999"><g id="textblocktransform"><svg viewBox="0 0 395.5199999999999 86.36665012406947" height="86.36665012406947" width="395.5199999999999" id="textblock"><g><svg viewBox="0 0 395.5199999999999 86.36665012406947" height="86.36665012406947" width="395.5199999999999"><g transform="matrix(1,0,0,1,0,0)"><svg width="395.5199999999999" viewBox="4.75 -29.6 181.34 39.6" height="86.36665012406947" data-palette-color="#c0d9c8"><path d="M22.75-29L22.75 0 21.25 0 21.25-14.5 6.25-14.5 6.25 0 4.75 0 4.75-29 6.25-29 6.25-16 21.25-16 21.25-29 22.75-29ZM31.75-29L33.25-29 33.25-14.5Q33.25-7.05 35.62-4.03 38-1 42.15-1 46.3-1 48.67-4.03 51.05-7.05 51.05-14.5L51.05-14.5 51.05-29 52.55-29 52.55-14.5Q52.55 0.5 42.15 0.5 31.75 0.5 31.75-14.5L31.75-14.5 31.75-29ZM79.84-3.95L80.95-2.95Q78.2 0.5 71.95 0.5 65.7 0.5 63-3.05 60.3-6.6 60.3-14.5 60.3-22.4 63-25.95 65.7-29.5 71.95-29.5L71.95-29.5Q79.2-29.5 81.8-24.75L81.8-24.75 69.55-14.5 67.2-14.5 79.84-25.05Q77.65-28 71.95-28L71.95-28Q69.45-28 67.75-27.48 66.05-26.95 64.62-25.53 63.2-24.1 62.5-21.38 61.8-18.65 61.8-14.5 61.8-10.35 62.5-7.63 63.2-4.9 64.62-3.48 66.05-2.05 67.75-1.53 69.45-1 71.95-1L71.95-1Q77.65-1 79.84-3.95L79.84-3.95ZM96.59-29.6L96.59-29.6Q102.79-29.6 105.39-26.85L105.39-26.85 104.39-25.75Q101.99-28.1 96.79-28.1L96.79-28.1Q88.99-28.1 88.99-21.9L88.99-21.9Q88.99-19.5 90.89-18.07 92.79-16.65 95.52-15.9 98.24-15.15 100.97-14.33 103.69-13.5 105.59-11.68 107.49-9.85 107.49-6.9L107.49-6.9Q107.49-3.45 104.64-1.4 101.79 0.65 96.39 0.65L96.39 0.65Q93.74 0.65 91.17-0.05 88.59-0.75 87.34-2.1L87.34-2.1 88.34-3.2Q90.89-0.85 96.19-0.85L96.19-0.85Q101.04-0.85 103.52-2.65 105.99-4.45 105.99-6.85L105.99-6.85Q105.99-9.35 104.09-10.9 102.19-12.45 99.47-13.23 96.74-14 94.02-14.83 91.29-15.65 89.39-17.4 87.49-19.15 87.49-22L87.49-22Q87.49-25.85 90.07-27.73 92.64-29.6 96.59-29.6ZM111.04-29L133.54-29 133.54-27.5 123.04-27.5 123.04 0 121.54 0 121.54-27.5 111.04-27.5 111.04-29ZM157.59-3.95L158.69-2.95Q155.94 0.5 149.69 0.5 143.44 0.5 140.74-3.05 138.04-6.6 138.04-14.5 138.04-22.4 140.74-25.95 143.44-29.5 149.69-29.5L149.69-29.5Q156.94-29.5 159.54-24.75L159.54-24.75 147.29-14.5 144.94-14.5 157.59-25.05Q155.39-28 149.69-28L149.69-28Q147.19-28 145.49-27.48 143.79-26.95 142.36-25.53 140.94-24.1 140.24-21.38 139.54-18.65 139.54-14.5 139.54-10.35 140.24-7.63 140.94-4.9 142.36-3.48 143.79-2.05 145.49-1.53 147.19-1 149.69-1L149.69-1Q155.39-1 157.59-3.95L157.59-3.95ZM181.89-12.4L179.09-10.8 178.34-12.1 181.14-13.7Q184.59-15.6 184.59-19.75L184.59-19.75Q184.59-27.5 172.79-27.5L172.79-27.5 168.19-27.5 168.19 10 166.69 10 166.69-29 172.79-29Q179.39-29 182.74-26.58 186.09-24.15 186.09-19.75L186.09-19.75Q186.09-14.75 181.89-12.4L181.89-12.4Z" opacity="1" transform="matrix(1,0,0,1,0,0)" fill="#c0d9c8" class="wordmark-text-0" data-fill-palette-color="primary" id="text-0"></path></svg></g></svg></g></svg></g></svg></g><g transform="matrix(1,0,0,1,92.99455189210966,0)"><svg viewBox="0 0 209.53089621578061 209.53089621578061" height="209.53089621578061" width="209.53089621578061"><g><svg></svg></g><g id="icon-0"><svg viewBox="0 0 209.53089621578061 209.53089621578061" height="209.53089621578061" width="209.53089621578061"><g><path d="M0 104.765c0-57.86 46.905-104.765 104.765-104.765 57.86 0 104.765 46.905 104.766 104.765 0 57.86-46.905 104.765-104.766 104.766-57.86 0-104.765-46.905-104.765-104.766zM104.765 201.742c53.559 0 96.977-43.418 96.977-96.977 0-53.559-43.418-96.977-96.977-96.976-53.559 0-96.977 43.418-96.976 96.976 0 53.559 43.418 96.977 96.976 96.977z" data-fill-palette-color="accent" fill="#c0d9c8" stroke="transparent"></path><ellipse rx="103.7177936268114" ry="103.7177936268114" cx="104.76544810789031" cy="104.76544810789031" fill="#c0d9c8" stroke="transparent" stroke-width="0" fill-opacity="1" data-fill-palette-color="accent"></ellipse></g><g transform="matrix(1,0,0,1,47.34439665326845,44.83443858829779)"><svg viewBox="0 0 114.84210290924372 119.86201903918503" height="119.86201903918503" width="114.84210290924372"><g><svg xmlns="http://www.w3.org/2000/svg" xmlns:xlink="http://www.w3.org/1999/xlink" version="1.1" x="0" y="0" viewBox="7.222 5.352 85.55600000000001 89.29577777777779" enable-background="new 0 0 100 100" xml:space="preserve" height="119.86201903918503" width="114.84210290924372" class="icon-z$-0" data-fill-palette-color="quaternary" id="z$-0"><g fill="#ffffff" data-fill-palette-color="quaternary"><g fill="#ffffff" data-fill-palette-color="quaternary"><path d="M64.004 13.952l-39.124-8.6L7.222 34.782l13.652 2.912c1.601-2.041 4.647-5.181 9.699-7.948 0.486-0.299 0.959-0.573 1.401-0.799 0.449-0.23 0.97-0.448 1.522-0.66 1.489-0.662 3.116-1.28 4.894-1.829 7.592-2.339 17.506-1.143 25.614 2.897V13.952z" fill="#ffffff" data-fill-palette-color="quaternary"></path><path d="M65.778 14.342v15.985c0.363 0.208 0.749 0.384 1.103 0.604 2.782 1.729 5.949 4.262 8.518 7.8l17.379-18.454L65.778 14.342z" fill="#ffffff" data-fill-palette-color="quaternary"></path></g><g fill="#ffffff" data-fill-palette-color="quaternary"><path d="M62.906 41.347v-3.643c0-0.761 0.454-1.406 1.098-1.715v-3.44c-7.698-4.27-17.448-5.673-24.786-3.409-12.981 4.005-17.288 11.937-17.33 12.016l-0.001-0.001c-1.361 3.989-2.565 10.101-2.565 10.101 6.78-6.78 16.754-5.065 16.754-5.065 12.489-4.175 21.273-3.574 27.125-1.724l0.159-1.926C63.09 42.211 62.906 41.806 62.906 41.347z" fill="#ffffff" data-fill-palette-color="quaternary"></path><path d="M64.821 36.677c-0.567 0-1.028 0.461-1.028 1.027v3.643c0 0.567 0.461 1.028 1.028 1.028s1.028-0.461 1.028-1.028v-3.643C65.849 37.138 65.388 36.677 64.821 36.677z" fill="#ffffff" data-fill-palette-color="quaternary"></path><path d="M65.778 33.563v2.521c0.562 0.334 0.958 0.921 0.958 1.62v3.643c0 0.592-0.286 1.101-0.709 1.453l0.235 2.844c4.62 2.143 6.596 4.832 6.596 4.832 1.13-3.686 1.667-6.407 1.86-7.496C72.329 38.578 68.845 35.534 65.778 33.563z" fill="#ffffff" data-fill-palette-color="quaternary"></path></g><g fill="#ffffff" data-fill-palette-color="quaternary"><path d="M64.247 43.249c0 0-4.822 50.185-3.841 51.025 0.982 0.841 3.083 0 3.083 0s-0.14-3.083 0.841-2.943c0.982 0.14 1.121 0.141 1.542-1.681 0.42-1.822 0.281-1.261 0.981-4.204 0.701-2.943-1.321-41.017-1.671-42.138L64.247 43.249z" fill="#ffffff" data-fill-palette-color="quaternary"></path></g></g></svg></g></svg></g></svg></g></svg></g><g></g></svg></g><defs></defs></svg><rect width="290.40567655213823" height="247.2" fill="none" stroke="none" visibility="hidden"></rect></g></svg></g></svg>